<svg xmlns="http://www.w3.org/2000/svg" viewBox="0 0 21.01 21.59"><title>logo</title><g id="Layer_1" data-name="Layer 1"><path d="M12.13,20.92S2.83,12.47,2.37,7.7s3.38-6.14,4.92-6a6,6,0,0,1,4.82,3.15s3-4.88,7.32-2.3c3.76,2.22,1.38,8.29-1.85,12.36A71.48,71.48,0,0,1,12.13,20.92Z" transform="translate(-1.33 -0.7)" style="fill:none;stroke:#fff;stroke-miterlimit:10;stroke-width:2px"/><path d="M12.25,20.69s-6.06-5.51-6.36-8.61A3.27,3.27,0,0,1,9.1,8.17a3.64,3.64,0,0,1,3,2.05S14.17,7,17,8.72c2.45,1.45.9,5.41-1.21,8.06A46.13,46.13,0,0,1,12.25,20.69Z" transform="translate(-1.33 -0.7)" style="fill:#fff"/></g></svg>